<?xml version="1.0" encoding="utf-8"?>
<!-- Generator: Adobe Illustrator 21.1.0, SVG Export Plug-In . SVG Version: 6.00 Build 0)  -->
<svg version="1.1" id="Layer_1" xmlns="http://www.w3.org/2000/svg" xmlns:xlink="http://www.w3.org/1999/xlink" x="0px" y="0px"
	 viewBox="0 0 100 100" style="enable-background:new 0 0 100 100;" xml:space="preserve">
<style type="text/css">
	.st0{fill:#141212;}
	.st1{opacity:0.9;}
	.st2{fill:#019630;stroke:#000000;stroke-width:0.5;stroke-miterlimit:10;}
	.st3{fill:#FF6B26;stroke:#000000;stroke-width:0.5;stroke-miterlimit:10;}
	.st4{fill:#FF854C;stroke:#000000;stroke-width:0.5;stroke-miterlimit:10;}
	.st5{fill:#FFFFFF;stroke:#000000;stroke-width:0.5;stroke-miterlimit:10;}
	.st6{fill:#FF7839;stroke:#000000;stroke-width:0.5;stroke-miterlimit:10;}
	.st7{fill:#FF9260;stroke:#000000;stroke-width:0.5;stroke-miterlimit:10;}
	.st8{fill:#FF5E13;stroke:#000000;stroke-width:0.5;stroke-miterlimit:10;}
	.st9{fill:none;stroke:#000000;stroke-width:0.5;stroke-miterlimit:10;}
	.st10{stroke:#000000;stroke-width:0.5;stroke-miterlimit:10;}
</style>
<g>
	<g>
		<rect class="st0" width="100" height="100"/>
	</g>
</g>
<g class="st1">
	<g>
		<g>
			<path class="st2" d="M59.6,27.3c1.4,2.8,3.4,1.1,3.4,0s1.9-2.8-0.9-3.4c-2.9-0.6-2.9-0.6-2.9-0.6s-2.4,1.1-0.5,3.4
				C60.5,29,59.6,27.3,59.6,27.3z"/>
			<path class="st3" d="M61.2,20.5c0,0-0.4,5.5,3.3,0.8c3.7-4.7-3-3.6-3-2.8C61.5,19.4,61.2,20.5,61.2,20.5z"/>
			<path class="st4" d="M59.2,22.9c0,0,1.2-3.1,0-4s-2.3-1.3-2.7-0.9s-1.9,0.9-1.2,2.2C56.1,21.5,59.2,22.9,59.2,22.9z"/>
			<path class="st3" d="M57.2,25.8c0,0,1-4.2-3.8-1.4s3.1,3.4,3.1,2.8C56.7,26.7,57.2,25.8,57.2,25.8z"/>
			<path class="st5" d="M64.3,24.2"/>
			<path class="st6" d="M64.8,26c-1.3,1.6-0.6,1.9-0.1,1.4c1.2-1.3,5.7-1.4,5.1-3.6c-0.6-2.3-5.7-1.3-5.6,0.5S64.8,26,64.8,26"/>
			<path class="st7" d="M64.8,34.3c0,0-1-0.7-1.1-0.5c-0.5,0.7-1.8-1.7-1.9-2.3c-0.1-0.6-1.3-1.7-0.2-1.9c1.1-0.1,1.2-2.3,3.1,0.6
				C66.6,33.1,66.2,33.7,64.8,34.3z"/>
			<path class="st8" d="M56.6,28.4c0,0,1.4-0.5,2.2,0.3s1.1,0.6,0.4,2.4s-4.1,1.8-4.1,1.8S52.8,32.3,56.6,28.4z"/>
		</g>
	</g>
</g>
<g class="st1">
	<g>
		<g>
			<path class="st2" d="M21.5,26.6c1.4-2.8,3.4-1.1,3.4,0s1.9,2.8-0.9,3.4s-2.9,0.6-2.9,0.6s-2.4-1.1-0.5-3.4S21.5,26.6,21.5,26.6z"
				/>
			<path class="st3" d="M23.1,33.3c0,0-0.4-5.5,3.3-0.8s-3,3.6-3,2.8C23.5,34.5,23.1,33.3,23.1,33.3z"/>
			<path class="st4" d="M21.2,31c0,0,1.2,3.1,0,4s-2.3,1.3-2.7,0.9c-0.4-0.4-1.9-0.9-1.2-2.2C18.1,32.3,21.2,31,21.2,31z"/>
			<path class="st3" d="M19.2,28c0,0,1,4.2-3.8,1.4s3.1-3.4,3.1-2.8C18.7,27.2,19.2,28,19.2,28z"/>
			<path class="st5" d="M26.2,29.6"/>
			<path class="st6" d="M26.8,27.8c-1.3-1.6-0.6-1.9-0.1-1.4c1.2,1.3,5.7,1.4,5.1,3.6c-0.6,2.3-5.7,1.3-5.6-0.5S26.8,27.8,26.8,27.8
				"/>
			<path class="st7" d="M26.8,19.6c0,0-1,0.7-1.1,0.5c-0.5-0.7-1.8,1.7-1.9,2.3s-1.3,1.7-0.2,1.9s1.2,2.3,3.1-0.6
				S28.1,20.1,26.8,19.6z"/>
			<path class="st8" d="M18.6,25.5c0,0,1.4,0.5,2.2-0.3c0.8-0.8,1.1-0.6,0.4-2.4c-0.6-1.8-4-1.8-4-1.8S14.8,21.6,18.6,25.5z"/>
		</g>
	</g>
</g>
<g class="st1">
	<path class="st2" d="M-71.6,21c1.4-3.8,3.4-1.5,3.4,0s1.9,3.8-0.9,4.6c-2.9,0.8-2.9,0.8-2.9,0.8s-2.4-1.5-0.5-4.6S-71.6,21-71.6,21
		z"/>
	<path class="st3" d="M-70,30.1c0,0-0.4-7.5,3.3-1.1c3.7,6.4-3,4.8-3,3.8C-69.6,31.7-70,30.1-70,30.1z"/>
	<path class="st4" d="M-71.9,26.9c0,0,1.2,4.1,0,5.3s-2.3,1.8-2.7,1.2c-0.4-0.6-1.9-1.2-1.2-3C-75,28.7-71.9,26.9-71.9,26.9z"/>
	<path class="st3" d="M-73.9,22.9c0,0,1,5.6-3.8,1.8s3.1-4.6,3.1-3.8C-74.4,21.8-73.9,22.9-73.9,22.9z"/>
	<path class="st5" d="M-66.9,25.1"/>
	<path class="st6" d="M-66.3,22.7c-1.3-2.1-0.6-2.6-0.1-1.9c1.2,1.7,5.7,1.9,5.1,4.8c-0.6,3.1-5.7,1.8-5.6-0.7S-66.3,22.7-66.3,22.7
		"/>
	<path class="st7" d="M-66.3,11.6c0,0-1,1-1.1,0.7c-0.5-0.9-1.8,2.2-1.9,3.1c-0.1,0.8-1.3,2.3-0.2,2.5c1.1,0.2,1.2,3.1,3.1-0.8
		C-64.5,13.1-65,12.3-66.3,11.6z"/>
	<path class="st8" d="M-74.5,19.5c0,0,1.4,0.7,2.2-0.4c0.8-1.1,1.1-0.8,0.4-3.3s-4.1-2.5-4.1-2.5S-78.3,14.3-74.5,19.5z"/>
</g>
<g class="st1">
	<g>
		<g>
			<path class="st2" d="M78,38.3c1.9-2.5,3.5-0.5,3.3,0.6s1.4,3.1-1.6,3.2s-3,0-3,0s-2.2-1.6,0.1-3.4C79.2,36.9,78,38.3,78,38.3z"/>
			<path class="st3" d="M78.3,45.2c0,0,0.7-5.5,3.4-0.2s-3.6,3-3.5,2.2C78.4,46.5,78.3,45.2,78.3,45.2z"/>
			<path class="st4" d="M76.8,42.6c0,0,0.6,3.2-0.7,3.9c-1.3,0.7-2.5,0.9-2.8,0.4s-1.7-1.2-0.7-2.4C73.5,43.3,76.8,42.6,76.8,42.6z"
				/>
			<path class="st3" d="M75.4,39.3c0,0,0.2,4.3-4,0.6s3.6-2.8,3.6-2.2S75.4,39.3,75.4,39.3z"/>
			<path class="st5" d="M82,42.2"/>
			<path class="st6" d="M82.9,40.6c-1-1.8-0.3-2,0.1-1.4c0.9,1.5,5.3,2.4,4.3,4.5s-5.9,0.2-5.4-1.5C82.4,40.3,82.9,40.6,82.9,40.6"
				/>
			<path class="st7" d="M84.4,32.5c0,0-1.1,0.5-1.2,0.3C82.8,32,81.1,34,81,34.6c-0.2,0.6-1.6,1.5-0.5,1.8c1,0.3,0.7,2.5,3.1,0
				C86,33.9,85.7,33.3,84.4,32.5z"/>
			<path class="st8" d="M75.3,36.7c0,0,1.3,0.8,2.3,0.1c1-0.6,1.2-0.4,0.9-2.3c-0.4-1.9-3.6-2.6-3.6-2.6S72.3,32.2,75.3,36.7z"/>
		</g>
	</g>
</g>
<g class="st1">
	<g>
		<g>
			<path class="st2" d="M98.5,41.2c1.4,2.8,3.4,1.1,3.4,0s1.9-2.8-1-3.4C98,37.2,98,37.2,98,37.2s-2.4,1.1-0.5,3.4
				C99.5,42.9,98.5,41.2,98.5,41.2z"/>
			<path class="st3" d="M100.1,34.5c0,0-0.3,5.5,3.3,0.8s-3-3.6-3-2.8C100.4,33.3,100.1,34.5,100.1,34.5z"/>
			<path class="st4" d="M98.2,36.8c0,0,1.2-3.1,0-4C97,32,95.9,31.6,95.5,32c-0.4,0.4-1.9,0.9-1.2,2.2
				C95.1,35.5,98.2,36.8,98.2,36.8z"/>
			<path class="st3" d="M96.2,39.8c0,0,1-4.2-3.8-1.3s3.1,3.4,3.2,2.8S96.2,39.8,96.2,39.8z"/>
			<path class="st5" d="M103.2,38.2"/>
			<path class="st6" d="M103.8,40c-1.3,1.6-0.6,1.9-0.1,1.4c1.2-1.3,5.7-1.4,5.1-3.6c-0.6-2.3-5.7-1.3-5.6,0.5S103.8,40,103.8,40"/>
			<path class="st7" d="M103.8,48.2c0,0-1-0.7-1.1-0.5c-0.5,0.7-1.8-1.6-1.9-2.3c-0.1-0.6-1.3-1.7-0.2-1.9s1.2-2.3,3.1,0.6
				C105.6,47,105.2,47.6,103.8,48.2z"/>
			<path class="st8" d="M95.6,42.3c0,0,1.4-0.5,2.2,0.3c0.8,0.8,1.1,0.6,0.4,2.4c-0.7,1.8-4,1.8-4,1.8S91.8,46.3,95.6,42.3z"/>
		</g>
	</g>
</g>
<g class="st1">
	<g>
		<g>
			<path class="st2" d="M41.2,14.6c1.4-2.8,3.4-1.1,3.4,0s1.9,2.8-1,3.4s-2.9,0.6-2.9,0.6s-2.4-1.1-0.5-3.4
				C42.1,12.9,41.2,14.6,41.2,14.6z"/>
			<path class="st3" d="M42.7,21.3c0,0-0.3-5.5,3.3-0.8c3.7,4.7-3,3.6-3,2.8C43.1,22.5,42.7,21.3,42.7,21.3z"/>
			<path class="st4" d="M40.8,19c0,0,1.2,3.1,0,4s-2.3,1.3-2.7,0.9s-1.9-0.9-1.2-2.2C37.7,20.3,40.8,19,40.8,19z"/>
			<path class="st3" d="M38.8,16c0,0,1,4.2-3.8,1.3s3.1-3.4,3.2-2.8C38.3,15.1,38.8,16,38.8,16z"/>
			<path class="st5" d="M45.8,17.6"/>
			<path class="st6" d="M46.4,15.8c-1.3-1.6-0.6-1.9-0.1-1.4c1.2,1.3,5.7,1.4,5.1,3.6c-0.6,2.3-5.7,1.3-5.6-0.5S46.4,15.8,46.4,15.8
				"/>
			<path class="st7" d="M46.4,7.6c0,0-1,0.7-1.1,0.5c-0.5-0.7-1.8,1.6-1.9,2.3s-1.3,1.7-0.2,1.9s1.2,2.3,3.1-0.6
				C48.2,8.7,47.8,8.2,46.4,7.6z"/>
			<path class="st8" d="M38.2,13.5c0,0,1.4,0.5,2.2-0.3s1.1-0.6,0.4-2.4c-0.7-1.8-4-1.8-4-1.8S34.5,9.5,38.2,13.5z"/>
		</g>
	</g>
</g>
<g class="st1">
	<g>
		<g>
			<path class="st2" d="M82.5,17.6c1.4-2.8,3.4-1.1,3.4,0s1.9,2.8-1,3.4S82,21.6,82,21.6s-2.4-1.1-0.5-3.4S82.5,17.6,82.5,17.6z"/>
			<path class="st3" d="M84,24.4c0,0-0.3-5.5,3.3-0.8c3.7,4.7-3,3.6-3,2.8S84,24.4,84,24.4z"/>
			<path class="st4" d="M82.1,22c0,0,1.2,3.1,0,4s-2.3,1.3-2.7,0.9c-0.4-0.4-1.9-0.9-1.2-2.2C79,23.3,82.1,22,82.1,22z"/>
			<path class="st3" d="M80.1,19c0,0,1,4.2-3.8,1.3s3.1-3.4,3.2-2.8S80.1,19,80.1,19z"/>
			<path class="st5" d="M87.1,20.7"/>
			<path class="st6" d="M87.7,18.9c-1.3-1.6-0.6-1.9-0.1-1.4c1.2,1.3,5.7,1.4,5.1,3.6c-0.6,2.3-5.7,1.3-5.6-0.5S87.7,18.9,87.7,18.9
				"/>
			<path class="st7" d="M87.7,10.7c0,0-1,0.7-1.1,0.5c-0.5-0.7-1.8,1.6-1.9,2.3c-0.1,0.6-1.3,1.7-0.2,1.9c1.1,0.1,1.2,2.3,3.1-0.6
				C89.5,11.8,89.1,11.2,87.7,10.7z"/>
			<path class="st8" d="M79.5,16.5c0,0,1.4,0.5,2.2-0.3c0.8-0.8,1.1-0.6,0.4-2.4s-4-1.8-4-1.8S75.8,12.6,79.5,16.5z"/>
		</g>
	</g>
</g>
<g class="st1">
	<g>
		<g>
			<path class="st2" d="M27.9,5.1c1.4,2.8,3.4,1.1,3.4,0s1.9-2.8-1-3.4s-2.9-0.6-2.9-0.6S25.1,2.3,27,4.6S27.9,5.1,27.9,5.1z"/>
			<path class="st3" d="M29.5-1.6c0,0-0.3,5.5,3.3,0.8s-3-3.6-3-2.8S29.5-1.6,29.5-1.6z"/>
			<path class="st4" d="M27.6,0.7c0,0,1.2-3.1,0-4s-2.3-1.3-2.7-0.9C24.5-3.8,23-3.3,23.7-2C24.5-0.6,27.6,0.7,27.6,0.7z"/>
			<path class="st3" d="M25.6,3.7c0,0,1-4.2-3.8-1.3s3.1,3.4,3.2,2.8C25.1,4.5,25.6,3.7,25.6,3.7z"/>
			<path class="st5" d="M32.6,2"/>
			<path class="st6" d="M33.2,3.8c-1.3,1.6-0.6,1.9-0.1,1.4c1.2-1.3,5.7-1.4,5.1-3.6c-0.6-2.3-5.7-1.3-5.6,0.5
				C32.7,4,33.2,3.8,33.2,3.8"/>
			<path class="st7" d="M33.2,12.1c0,0-1-0.7-1.1-0.5c-0.5,0.7-1.8-1.6-1.9-2.3c-0.1-0.6-1.3-1.7-0.2-1.9c1.1-0.1,1.2-2.3,3.1,0.6
				C35,10.9,34.6,11.5,33.2,12.1z"/>
			<path class="st8" d="M25,6.2c0,0,1.4-0.5,2.2,0.3s1.1,0.6,0.4,2.4s-4,1.8-4,1.8S21.2,10.2,25,6.2z"/>
		</g>
	</g>
</g>
<g class="st1">
	<g>
		<g>
			<path class="st2" d="M46.4,68.4c-1.8-2.6,0.7-3.5,1.6-3s3.4-0.3,2.5,2.5s-0.9,2.8-0.9,2.8s-2.2,1.6-3.2-1.2
				C45.4,66.7,46.4,68.4,46.4,68.4z"/>
			<path class="st3" d="M53.1,70.2c0,0-5-2.4,0.9-3.3s1.7,4.4,1,4C54.3,70.5,53.1,70.2,53.1,70.2z"/>
			<path class="st4" d="M50.1,70.8c0,0,3.3,0.5,3.5,1.9s0,2.7-0.5,2.8c-0.6,0.1-1.7,1.3-2.5,0C49.7,74.1,50.1,70.8,50.1,70.8z"/>
			<path class="st3" d="M46.5,71.1c0,0,4.2,1.1-0.7,3.9c-4.8,2.8-1.5-4.3-0.9-4.1C45.5,71.1,46.5,71.1,46.5,71.1z"/>
			<path class="st5" d="M51.4,65.8"/>
			<path class="st6" d="M50.1,64.4c-2,0.4-2-0.4-1.3-0.6c1.7-0.4,4-4.3,5.6-2.7c1.7,1.6-1.6,5.7-3.2,4.6
				C49.7,64.7,50.1,64.4,50.1,64.4"/>
			<path class="st7" d="M42.9,60.4c0,0,0.2,1.2-0.1,1.2c-0.8,0.1,0.6,2.4,1.1,2.7c0.5,0.4,0.9,1.9,1.5,1.1c0.6-0.9,2.6,0.1,1-3
				S44,59.4,42.9,60.4z"/>
			<path class="st8" d="M44,70.4c0,0,1.1-1,0.8-2.1s0-1.3-1.9-1.6c-1.9-0.3-3.6,2.6-3.6,2.6S38.8,71.8,44,70.4z"/>
		</g>
	</g>
</g>
<g class="st1">
	<g>
		<g>
			<path class="st2" d="M69.2,86.7c1.4,2.8,3.4,1.1,3.4,0s1.9-2.8-1-3.4s-2.9-0.6-2.9-0.6s-2.4,1.1-0.5,3.4S69.2,86.7,69.2,86.7z"/>
			<path class="st3" d="M70.7,80c0,0-0.3,5.5,3.3,0.8c3.7-4.7-3-3.6-3-2.8C71.1,78.8,70.7,80,70.7,80z"/>
			<path class="st4" d="M68.8,82.3c0,0,1.2-3.1,0-4s-2.3-1.3-2.7-0.9c-0.4,0.4-1.9,0.9-1.2,2.2S68.8,82.3,68.8,82.3z"/>
			<path class="st3" d="M66.8,85.3c0,0,1-4.2-3.8-1.3s3.1,3.4,3.2,2.8S66.8,85.3,66.8,85.3z"/>
			<path class="st5" d="M73.8,83.7"/>
			<path class="st6" d="M74.4,85.5c-1.3,1.6-0.6,1.9-0.1,1.4c1.2-1.3,5.7-1.4,5.1-3.6c-0.6-2.3-5.7-1.3-5.6,0.5
				C73.9,85.6,74.4,85.5,74.4,85.5"/>
			<path class="st7" d="M74.4,93.7c0,0-1-0.7-1.1-0.5c-0.5,0.7-1.8-1.6-1.9-2.3c-0.1-0.6-1.3-1.7-0.2-1.9s1.2-2.3,3.1,0.6
				C76.2,92.5,75.8,93.1,74.4,93.7z"/>
			<path class="st8" d="M66.2,87.8c0,0,1.4-0.5,2.2,0.3c0.8,0.8,1.1,0.6,0.4,2.4s-4,1.8-4,1.8S62.5,91.8,66.2,87.8z"/>
		</g>
	</g>
</g>
<g class="st1">
	<g>
		<g>
			<path class="st2" d="M19.4,78.3c1.4-2.8,3.4-1.1,3.4,0s1.9,2.8-1,3.4s-2.9,0.6-2.9,0.6s-2.4-1.1-0.5-3.4S19.4,78.3,19.4,78.3z"/>
			<path class="st3" d="M21,85c0,0-0.3-5.5,3.3-0.8c3.7,4.7-3,3.6-3,2.8C21.3,86.2,21,85,21,85z"/>
			<path class="st4" d="M19.1,82.7c0,0,1.2,3.1,0,4s-2.3,1.3-2.7,0.9c-0.4-0.4-1.9-0.9-1.2-2.2C16,84,19.1,82.7,19.1,82.7z"/>
			<path class="st3" d="M17.1,79.7c0,0,1,4.2-3.8,1.3s3.1-3.4,3.2-2.8C16.6,78.9,17.1,79.7,17.1,79.7z"/>
			<path class="st5" d="M24.1,81.4"/>
			<path class="st6" d="M24.6,79.6c-1.3-1.6-0.6-1.9-0.1-1.4c1.2,1.3,5.7,1.4,5.1,3.6c-0.6,2.3-5.7,1.3-5.6-0.5
				C24.2,79.4,24.6,79.6,24.6,79.6"/>
			<path class="st7" d="M24.7,71.3c0,0-1,0.7-1.1,0.5c-0.5-0.7-1.8,1.6-1.9,2.3c-0.1,0.6-1.3,1.7-0.2,1.9c1.1,0.1,1.2,2.3,3.1-0.6
				C26.5,72.5,26.1,71.9,24.7,71.3z"/>
			<path class="st8" d="M16.5,77.2c0,0,1.4,0.5,2.2-0.3c0.8-0.8,1.1-0.6,0.4-2.4s-4-1.8-4-1.8S12.7,73.3,16.5,77.2z"/>
		</g>
	</g>
</g>
<g class="st1">
	<g>
		<g>
			<path class="st2" d="M72.3,63.1c1.4-2.8,3.4-1.1,3.4,0s1.9,2.8-0.9,3.4s-2.9,0.6-2.9,0.6s-2.4-1.1-0.5-3.4
				C73.2,61.4,72.3,63.1,72.3,63.1z"/>
			<path class="st3" d="M73.9,69.9c0,0-0.4-5.5,3.3-0.8c3.7,4.7-3,3.6-3,2.8C74.2,71,73.9,69.9,73.9,69.9z"/>
			<path class="st4" d="M71.9,67.5c0,0,1.2,3.1,0,4s-2.3,1.3-2.7,0.9c-0.4-0.4-1.9-0.9-1.2-2.2C68.8,68.9,71.9,67.5,71.9,67.5z"/>
			<path class="st3" d="M69.9,64.6c0,0,1,4.2-3.8,1.4c-4.8-2.8,3.1-3.4,3.1-2.8C69.4,63.7,69.9,64.6,69.9,64.6z"/>
			<path class="st5" d="M76.9,66.2"/>
			<path class="st6" d="M77.5,64.4c-1.3-1.6-0.6-1.9-0.1-1.4c1.2,1.3,5.7,1.4,5.1,3.6c-0.6,2.3-5.7,1.3-5.6-0.5S77.5,64.4,77.5,64.4
				"/>
			<path class="st7" d="M77.5,56.1c0,0-1,0.7-1.1,0.5c-0.5-0.7-1.8,1.7-1.9,2.3s-1.3,1.7-0.2,1.9c1.1,0.1,1.2,2.3,3.1-0.6
				C79.3,57.3,78.9,56.7,77.5,56.1z"/>
			<path class="st8" d="M69.3,62c0,0,1.4,0.5,2.2-0.3s1.1-0.6,0.4-2.4c-0.7-1.8-4.1-1.8-4.1-1.8S65.5,58.1,69.3,62z"/>
		</g>
	</g>
</g>
<g class="st1">
	<g>
		<g>
			<path class="st2" d="M86,95.4c1.3-2.8,3-1.1,3,0s1.7,2.8-0.8,3.4s-2.5,0.6-2.5,0.6s-2.1-1.1-0.4-3.4S86,95.4,86,95.4z"/>
			<path class="st3" d="M87.4,102.2c0,0-0.3-5.5,2.9-0.8c3.2,4.7-2.6,3.6-2.6,2.8S87.4,102.2,87.4,102.2z"/>
			<path class="st4" d="M85.7,99.8c0,0,1,3.1,0,4s-2,1.3-2.4,0.9c-0.3-0.4-1.7-0.9-1-2.2C83,101.2,85.7,99.8,85.7,99.8z"/>
			<path class="st3" d="M84,96.9c0,0,0.9,4.2-3.3,1.4c-4.2-2.8,2.7-3.4,2.8-2.8C83.5,96,84,96.9,84,96.9z"/>
			<path class="st5" d="M90.1,98.5"/>
			<path class="st6" d="M90.6,96.7c-1.1-1.6-0.6-1.9-0.1-1.4c1.1,1.3,5,1.4,4.5,3.6c-0.5,2.3-5,1.3-4.9-0.5
				C90.2,96.5,90.6,96.7,90.6,96.7"/>
			<path class="st7" d="M90.6,88.4c0,0-0.8,0.7-1,0.5c-0.4-0.7-1.6,1.7-1.6,2.3c0,0.6-1.1,1.7-0.1,1.9c1,0.1,1,2.3,2.7-0.6
				C92.2,89.6,91.8,89,90.6,88.4z"/>
			<path class="st8" d="M83.5,94.4c0,0,1.2,0.5,2-0.3c0.7-0.8,1-0.6,0.4-2.4s-3.6-1.8-3.6-1.8S80.1,90.4,83.5,94.4z"/>
		</g>
	</g>
</g>
<g class="st1">
	<g>
		<g>
			<path class="st2" d="M-2.9,80.1c1.4-2.8,3.4-1.1,3.4,0s1.9,2.8-0.9,3.4s-2.9,0.6-2.9,0.6s-2.4-1.1-0.5-3.4S-2.9,80.1-2.9,80.1z"
				/>
			<path class="st3" d="M-1.3,86.8c0,0-0.4-5.5,3.3-0.8s-3,3.6-3,2.8C-1,88-1.3,86.8-1.3,86.8z"/>
			<path class="st4" d="M-3.3,84.5c0,0,1.2,3.1,0,4s-2.3,1.3-2.7,0.9s-1.9-0.9-1.2-2.2S-3.3,84.5-3.3,84.5z"/>
			<path class="st3" d="M-5.3,81.5c0,0,1,4.2-3.8,1.4S-6,79.5-6,80.1C-5.8,80.7-5.3,81.5-5.3,81.5z"/>
			<path class="st5" d="M1.8,83.2"/>
			<path class="st6" d="M2.3,81.4c-1.3-1.6-0.6-2-0.1-1.4c1.2,1.3,5.7,1.4,5.1,3.6c-0.6,2.3-5.7,1.3-5.6-0.5S2.3,81.4,2.3,81.4"/>
			<path class="st7" d="M2.3,73.1c0,0-1,0.7-1.1,0.5c-0.5-0.7-1.8,1.7-1.9,2.3c-0.1,0.6-1.3,1.7-0.2,1.9c1.1,0.1,1.2,2.3,3.1-0.6
				S3.7,73.7,2.3,73.1z"/>
			<path class="st8" d="M-5.9,79c0,0,1.4,0.5,2.2-0.3s1.1-0.6,0.4-2.4s-4.1-1.8-4.1-1.8S-9.7,75.1-5.9,79z"/>
		</g>
	</g>
</g>
<g class="st1">
	<g>
		<g>
			<path class="st2" d="M2.7,17.1C4.1,14.3,6,16,6,17.1s1.9,2.8-0.9,3.4c-2.9,0.6-2.9,0.6-2.9,0.6s-2.4-1.1-0.5-3.4
				S2.7,17.1,2.7,17.1z"/>
			<path class="st3" d="M4.3,23.8c0,0-0.4-5.5,3.3-0.8s-3,3.6-3,2.8C4.6,25,4.3,23.8,4.3,23.8z"/>
			<path class="st4" d="M2.3,21.5c0,0,1.2,3.1,0,4S0,26.8-0.4,26.4s-1.9-0.9-1.2-2.2S2.3,21.5,2.3,21.5z"/>
			<path class="st3" d="M0.3,18.5c0,0,1,4.2-3.8,1.4s3.1-3.4,3.1-2.8C-0.2,17.7,0.3,18.5,0.3,18.5z"/>
			<path class="st5" d="M7.3,20.2"/>
			<path class="st6" d="M7.9,18.4c-1.3-1.6-0.6-1.9-0.1-1.4c1.2,1.3,5.7,1.4,5.1,3.6c-0.6,2.3-5.7,1.3-5.6-0.5
				C7.4,18.2,7.9,18.4,7.9,18.4"/>
			<path class="st7" d="M7.9,10.1c0,0-1,0.7-1.1,0.5C6.3,9.9,5,12.3,4.9,12.9s-1.3,1.7-0.2,1.9s1.2,2.3,3.1-0.6S9.3,10.7,7.9,10.1z"
				/>
			<path class="st8" d="M-0.3,16c0,0,1.4,0.5,2.2-0.3s1.1-0.6,0.4-2.4s-4.1-1.8-4.1-1.8S-4.1,12.1-0.3,16z"/>
		</g>
	</g>
</g>
<g class="st1">
	<g>
		<g>
			<path class="st2" d="M101.7,17.1c1.4-2.8,3.4-1.1,3.4,0s1.9,2.8-0.9,3.4c-2.9,0.6-2.9,0.6-2.9,0.6s-2.4-1.1-0.5-3.4
				C102.6,15.4,101.7,17.1,101.7,17.1z"/>
			<path class="st3" d="M103.3,23.8c0,0-0.4-5.5,3.3-0.8c3.7,4.7-3,3.6-3,2.8C103.6,25,103.3,23.8,103.3,23.8z"/>
			<path class="st4" d="M101.3,21.5c0,0,1.2,3.1,0,4s-2.3,1.3-2.7,0.9s-1.9-0.9-1.2-2.2C98.2,22.8,101.3,21.5,101.3,21.5z"/>
			<path class="st3" d="M99.3,18.5c0,0,1,4.2-3.8,1.4s3.1-3.4,3.1-2.8C98.8,17.7,99.3,18.5,99.3,18.5z"/>
			<path class="st5" d="M106.3,20.2"/>
			<path class="st6" d="M106.9,18.4c-1.3-1.6-0.6-1.9-0.1-1.4c1.2,1.3,5.7,1.4,5.1,3.6c-0.6,2.3-5.7,1.3-5.6-0.5
				C106.4,18.2,106.9,18.4,106.9,18.4"/>
			<path class="st7" d="M106.9,10.1c0,0-1,0.7-1.1,0.5c-0.5-0.7-1.8,1.7-1.9,2.3s-1.3,1.7-0.2,1.9c1.1,0.1,1.2,2.3,3.1-0.6
				C108.7,11.3,108.3,10.7,106.9,10.1z"/>
			<path class="st8" d="M98.7,16c0,0,1.4,0.5,2.2-0.3c0.8-0.8,1.1-0.6,0.4-2.4s-4.1-1.8-4.1-1.8S94.9,12.1,98.7,16z"/>
		</g>
	</g>
</g>
<g class="st1">
	<g>
		<g>
			<path class="st2" d="M-20.4-9.9c1.4,2.8,3.4,1.1,3.4,0s1.9-2.8-1-3.4c-2.9-0.6-2.9-0.6-2.9-0.6s-2.4,1.1-0.5,3.4
				S-20.4-9.9-20.4-9.9z"/>
			<path class="st3" d="M-18.9-16.6c0,0-0.3,5.5,3.3,0.8s-3-3.6-3-2.8C-18.5-17.8-18.9-16.6-18.9-16.6z"/>
			<path class="st4" d="M-20.8-14.3c0,0,1.2-3.1,0-4s-2.3-1.3-2.7-0.9s-1.9,0.9-1.2,2.2C-23.9-15.6-20.8-14.3-20.8-14.3z"/>
			<path class="st3" d="M-22.8-11.3c0,0,1-4.2-3.8-1.3s3.1,3.4,3.2,2.8S-22.8-11.3-22.8-11.3z"/>
			<path class="st5" d="M-15.8-13"/>
			<path class="st6" d="M-15.2-11.2c-1.3,1.6-0.6,1.9-0.1,1.4c1.2-1.3,5.7-1.4,5.1-3.6c-0.6-2.3-5.7-1.3-5.6,0.5
				C-15.7-11-15.2-11.2-15.2-11.2"/>
			<path class="st7" d="M-15.2-2.9c0,0-1-0.7-1.1-0.5c-0.5,0.7-1.8-1.6-1.9-2.3c-0.1-0.6-1.3-1.7-0.2-1.9c1.1-0.1,1.2-2.3,3.1,0.6
				S-13.8-3.5-15.2-2.9z"/>
			<path class="st8" d="M-23.4-8.8c0,0,1.4-0.5,2.2,0.3c0.8,0.8,1.1,0.6,0.4,2.4s-4,1.8-4,1.8S-27.1-4.8-23.4-8.8z"/>
		</g>
	</g>
</g>
<g class="st1">
	<g>
		<g>
			<path class="st2" d="M33.7-19.9c1.4-2.8,3.4-1.1,3.4,0s1.9,2.8-0.9,3.4c-2.9,0.6-2.9,0.6-2.9,0.6s-2.4-1.1-0.5-3.4
				C34.6-21.6,33.7-19.9,33.7-19.9z"/>
			<path class="st3" d="M35.3-13.2c0,0-0.4-5.5,3.3-0.8s-3,3.6-3,2.8S35.3-13.2,35.3-13.2z"/>
			<path class="st4" d="M33.3-15.5c0,0,1.2,3.1,0,4s-2.3,1.3-2.7,0.9c-0.4-0.4-1.9-0.9-1.2-2.2C30.2-14.2,33.3-15.5,33.3-15.5z"/>
			<path class="st3" d="M31.3-18.5c0,0,1,4.2-3.8,1.4s3.1-3.4,3.1-2.8C30.8-19.3,31.3-18.5,31.3-18.5z"/>
			<path class="st5" d="M38.3-16.8"/>
			<path class="st6" d="M38.9-18.6c-1.3-1.6-0.6-1.9-0.1-1.4c1.2,1.3,5.7,1.4,5.1,3.6c-0.6,2.3-5.7,1.3-5.6-0.5
				C38.4-18.8,38.9-18.6,38.9-18.6"/>
			<path class="st7" d="M38.9-26.9c0,0-1,0.7-1.1,0.5c-0.5-0.7-1.8,1.7-1.9,2.3c-0.1,0.6-1.3,1.7-0.2,1.9c1.1,0.1,1.2,2.3,3.1-0.6
				C40.7-25.7,40.3-26.3,38.9-26.9z"/>
			<path class="st8" d="M30.7-21c0,0,1.4,0.5,2.2-0.3s1.1-0.6,0.4-2.4c-0.7-1.8-4.1-1.8-4.1-1.8S26.9-24.9,30.7-21z"/>
		</g>
	</g>
</g>
<g class="st1">
	<g>
		<g>
			<path class="st2" d="M26.9,105c1.4,2.8,3.4,1.1,3.4,0s1.9-2.8-1-3.4s-2.9-0.6-2.9-0.6s-2.4,1.1-0.5,3.4S26.9,105,26.9,105z"/>
			<path class="st3" d="M28.5,98.3c0,0-0.3,5.5,3.3,0.8s-3-3.5-3-2.8S28.5,98.3,28.5,98.3z"/>
			<path class="st4" d="M26.6,100.6c0,0,1.2-3.1,0-3.9c-1.2-0.9-2.3-1.3-2.7-0.9c-0.4,0.4-1.9,0.9-1.2,2.2
				C23.5,99.3,26.6,100.6,26.6,100.6z"/>
			<path class="st3" d="M24.6,103.6c0,0,1-4.2-3.8-1.3c-4.8,2.8,3.1,3.4,3.2,2.8C24.1,104.4,24.6,103.6,24.6,103.6z"/>
			<path class="st5" d="M31.6,101.9"/>
			<path class="st6" d="M32.2,103.7c-1.3,1.5-0.6,1.9-0.1,1.4c1.2-1.3,5.7-1.4,5.1-3.6c-0.6-2.3-5.7-1.3-5.6,0.5
				C31.7,103.9,32.2,103.7,32.2,103.7"/>
			<path class="st7" d="M32.2,111.9c0,0-1-0.7-1.1-0.5c-0.5,0.7-1.8-1.6-1.9-2.3c-0.1-0.6-1.3-1.7-0.2-1.8c1.1-0.1,1.2-2.3,3.1,0.6
				C34,110.8,33.6,111.3,32.2,111.9z"/>
			<path class="st8" d="M24,106.1c0,0,1.4-0.5,2.2,0.3s1.1,0.6,0.4,2.4s-4,1.8-4,1.8S20.2,110,24,106.1z"/>
		</g>
	</g>
</g>
<g class="st1">
	<g>
		<g>
			<path class="st2" d="M62.9,6.1c1.4,2.8,3.4,1.1,3.4,0s1.9-2.8-1-3.4s-2.9-0.6-2.9-0.6S60.1,3.3,62,5.6S62.9,6.1,62.9,6.1z"/>
			<path class="st3" d="M64.5-0.6c0,0-0.3,5.5,3.3,0.8c3.7-4.7-3-3.6-3-2.8S64.5-0.6,64.5-0.6z"/>
			<path class="st4" d="M62.6,1.7c0,0,1.2-3.1,0-4s-2.3-1.3-2.7-0.9S58-2.3,58.7-1S62.6,1.7,62.6,1.7z"/>
			<path class="st3" d="M60.6,4.7c0,0,1-4.2-3.8-1.3s3.1,3.4,3.2,2.8S60.6,4.7,60.6,4.7z"/>
			<path class="st5" d="M67.6,3"/>
			<path class="st6" d="M68.2,4.8c-1.3,1.6-0.6,1.9-0.1,1.4c1.2-1.3,5.7-1.4,5.1-3.6c-0.6-2.3-5.7-1.3-5.6,0.5S68.2,4.8,68.2,4.8"/>
			<path class="st7" d="M68.2,13.1c0,0-1-0.7-1.1-0.5c-0.5,0.7-1.8-1.6-1.9-2.3c-0.1-0.6-1.3-1.7-0.2-1.9c1.1-0.1,1.2-2.3,3.1,0.6
				S69.6,12.5,68.2,13.1z"/>
			<path class="st8" d="M60,7.2c0,0,1.4-0.5,2.2,0.3s1.1,0.6,0.4,2.4s-4,1.8-4,1.8S56.2,11.2,60,7.2z"/>
		</g>
	</g>
</g>
<g class="st1">
	<g>
		<g>
			<path class="st2" d="M7.9,101.1c1.4,2.8,3.4,1.1,3.4,0s1.9-2.8-1-3.4s-2.9-0.6-2.9-0.6s-2.4,1.1-0.5,3.4
				C8.9,102.8,7.9,101.1,7.9,101.1z"/>
			<path class="st3" d="M9.5,94.4c0,0-0.3,5.5,3.3,0.8s-3-3.6-3-2.8S9.5,94.4,9.5,94.4z"/>
			<path class="st4" d="M7.6,96.7c0,0,1.2-3.1,0-4s-2.3-1.3-2.7-0.9C4.5,92.2,3,92.7,3.7,94S7.6,96.7,7.6,96.7z"/>
			<path class="st3" d="M5.6,99.7c0,0,1-4.2-3.8-1.3s3.1,3.4,3.2,2.8C5.1,100.5,5.6,99.7,5.6,99.7z"/>
			<path class="st5" d="M12.6,98"/>
			<path class="st6" d="M13.2,99.8c-1.3,1.6-0.6,1.9-0.1,1.4c1.2-1.3,5.7-1.4,5.1-3.6c-0.6-2.3-5.7-1.3-5.6,0.5S13.2,99.8,13.2,99.8
				"/>
			<path class="st7" d="M13.2,108.1c0,0-1-0.7-1.1-0.5c-0.5,0.7-1.8-1.6-1.9-2.3c-0.1-0.6-1.3-1.7-0.2-1.9s1.2-2.3,3.1,0.6
				C15,106.9,14.6,107.5,13.2,108.1z"/>
			<path class="st8" d="M5,102.2c0,0,1.4-0.5,2.2,0.3s1.1,0.6,0.4,2.4s-4,1.8-4,1.8S1.2,106.2,5,102.2z"/>
		</g>
	</g>
</g>
<g class="st1">
	<g>
		<g>
			<path class="st2" d="M47.3,86.1c1.4-2.8,3.4-1.1,3.4,0s1.9,2.8-0.9,3.4c-2.9,0.6-2.9,0.6-2.9,0.6s-2.4-1.1-0.5-3.4
				C48.3,84.4,47.3,86.1,47.3,86.1z"/>
			<path class="st3" d="M49,92.8c0,0-0.4-5.5,3.3-0.8s-3,3.6-3,2.8S49,92.8,49,92.8z"/>
			<path class="st4" d="M47,90.5c0,0,1.2,3.1,0,4s-2.3,1.3-2.7,0.9s-1.9-0.9-1.2-2.2S47,90.5,47,90.5z"/>
			<path class="st3" d="M45,87.5c0,0,1,4.2-3.8,1.4s3.1-3.4,3.1-2.8C44.5,86.7,45,87.5,45,87.5z"/>
			<path class="st5" d="M52,89.2"/>
			<path class="st6" d="M52.6,87.4c-1.3-1.6-0.6-1.9-0.1-1.4c1.2,1.3,5.7,1.4,5.1,3.6c-0.6,2.3-5.7,1.3-5.6-0.5
				C52.1,87.2,52.6,87.4,52.6,87.4"/>
			<path class="st7" d="M52.6,79.1c0,0-1,0.7-1.1,0.5c-0.5-0.7-1.8,1.7-1.9,2.3c-0.1,0.6-1.3,1.7-0.2,1.9c1.1,0.1,1.2,2.3,3.1-0.6
				C54.4,80.3,54,79.7,52.6,79.1z"/>
			<path class="st8" d="M44.4,85c0,0,1.4,0.5,2.2-0.3s1.1-0.6,0.4-2.4c-0.7-1.8-4.1-1.8-4.1-1.8S40.6,81.1,44.4,85z"/>
		</g>
	</g>
</g>
<g class="st1">
	<g>
		<g>
			<path class="st2" d="M62.9,106.1c1.4,2.8,3.4,1.1,3.4,0s1.9-2.8-1-3.4s-2.9-0.6-2.9-0.6s-2.4,1.1-0.5,3.4
				C63.9,107.8,62.9,106.1,62.9,106.1z"/>
			<path class="st3" d="M64.5,99.4c0,0-0.3,5.5,3.3,0.8c3.7-4.7-3-3.6-3-2.8S64.5,99.4,64.5,99.4z"/>
			<path class="st4" d="M62.6,101.7c0,0,1.2-3.1,0-4s-2.3-1.3-2.7-0.9S58,97.7,58.7,99S62.6,101.7,62.6,101.7z"/>
			<path class="st3" d="M60.6,104.7c0,0,1-4.2-3.8-1.3s3.1,3.4,3.2,2.8C60.1,105.5,60.6,104.7,60.6,104.7z"/>
			<path class="st5" d="M67.6,103"/>
			<path class="st6" d="M68.2,104.8c-1.3,1.6-0.6,1.9-0.1,1.4c1.2-1.3,5.7-1.4,5.1-3.6c-0.6-2.3-5.7-1.3-5.6,0.5
				S68.2,104.8,68.2,104.8"/>
			<path class="st7" d="M68.2,113.1c0,0-1-0.7-1.1-0.5c-0.5,0.7-1.8-1.6-1.9-2.3c-0.1-0.6-1.3-1.7-0.2-1.9c1.1-0.1,1.2-2.3,3.1,0.6
				C70,111.9,69.6,112.5,68.2,113.1z"/>
			<path class="st8" d="M60,107.2c0,0,1.4-0.5,2.2,0.3s1.1,0.6,0.4,2.4s-4,1.8-4,1.8S56.2,111.2,60,107.2z"/>
		</g>
	</g>
</g>
<g class="st1">
	<g>
		<g>
			<path class="st2" d="M85.9-1.9c1.4,2.8,3.4,1.1,3.4,0s1.9-2.8-1-3.4s-2.9-0.6-2.9-0.6S83.1-4.7,85-2.4
				C86.9-0.2,85.9-1.9,85.9-1.9z"/>
			<path class="st3" d="M87.5-8.6c0,0-0.3,5.5,3.3,0.8c3.7-4.7-3-3.6-3-2.8S87.5-8.6,87.5-8.6z"/>
			<path class="st4" d="M85.6-6.3c0,0,1.2-3.1,0-4c-1.2-0.9-2.3-1.3-2.7-0.9c-0.4,0.4-1.9,0.9-1.2,2.2S85.6-6.3,85.6-6.3z"/>
			<path class="st3" d="M83.6-3.3c0,0,1-4.2-3.8-1.3s3.1,3.4,3.2,2.8S83.6-3.3,83.6-3.3z"/>
			<path class="st5" d="M90.6-5"/>
			<path class="st6" d="M91.2-3.2c-1.3,1.6-0.6,1.9-0.1,1.4c1.2-1.3,5.7-1.4,5.1-3.6c-0.6-2.3-5.7-1.3-5.6,0.5S91.2-3.2,91.2-3.2"/>
			<path class="st7" d="M91.2,5.1c0,0-1-0.7-1.1-0.5c-0.5,0.7-1.8-1.6-1.9-2.3c-0.1-0.6-1.3-1.7-0.2-1.9s1.2-2.3,3.1,0.6
				S92.6,4.5,91.2,5.1z"/>
			<path class="st8" d="M83-0.8c0,0,1.4-0.5,2.2,0.3c0.8,0.8,1.1,0.6,0.4,2.4s-4,1.8-4,1.8S79.2,3.2,83-0.8z"/>
		</g>
	</g>
</g>
<g class="st1">
	<g>
		<g>
			<path class="st2" d="M41.6,39.3c1.4,2.8,3.4,1.1,3.4,0s1.9-2.8-0.9-3.4s-2.9-0.6-2.9-0.6s-2.4,1.1-0.5,3.4
				C42.5,41,41.6,39.3,41.6,39.3z"/>
			<path class="st3" d="M43.2,32.5c0,0-0.4,5.5,3.3,0.8s-3-3.6-3-2.8C43.5,31.4,43.2,32.5,43.2,32.5z"/>
			<path class="st4" d="M41.2,34.9c0,0,1.2-3.1,0-4s-2.3-1.3-2.7-0.9s-1.9,0.9-1.2,2.2C38.1,33.5,41.2,34.9,41.2,34.9z"/>
			<path class="st3" d="M39.2,37.8c0,0,1-4.2-3.8-1.4s3.1,3.4,3.1,2.8C38.7,38.7,39.2,37.8,39.2,37.8z"/>
			<path class="st5" d="M46.3,36.2"/>
			<path class="st6" d="M46.8,38c-1.3,1.6-0.6,1.9-0.1,1.4c1.2-1.3,5.7-1.4,5.1-3.6c-0.6-2.3-5.7-1.3-5.6,0.5
				C46.3,38.2,46.8,38,46.8,38"/>
			<path class="st7" d="M46.8,46.3c0,0-1-0.7-1.1-0.5c-0.5,0.7-1.8-1.7-1.9-2.3c-0.1-0.6-1.3-1.7-0.2-1.9c1.1-0.1,1.2-2.3,3.1,0.6
				C48.6,45.1,48.2,45.7,46.8,46.3z"/>
			<path class="st8" d="M38.6,40.4c0,0,1.4-0.5,2.2,0.3s1.1,0.6,0.4,2.4s-4.1,1.8-4.1,1.8S34.8,44.3,38.6,40.4z"/>
		</g>
	</g>
</g>
<g class="st1">
	<g>
		<g>
			<path class="st2" d="M12.7,50.1c1.4-2.8,3.4-1.1,3.4,0s1.9,2.8-0.9,3.4s-2.9,0.6-2.9,0.6s-2.4-1.1-0.5-3.4
				C13.6,48.4,12.7,50.1,12.7,50.1z"/>
			<path class="st3" d="M14.3,56.8c0,0-0.4-5.5,3.3-0.8s-3,3.6-3,2.8S14.3,56.8,14.3,56.8z"/>
			<path class="st4" d="M12.3,54.5c0,0,1.2,3.1,0,4s-2.3,1.3-2.7,0.9c-0.4-0.4-1.9-0.9-1.2-2.2S12.3,54.5,12.3,54.5z"/>
			<path class="st3" d="M10.3,51.5c0,0,1,4.2-3.8,1.4s3.1-3.4,3.1-2.8C9.8,50.7,10.3,51.5,10.3,51.5z"/>
			<path class="st5" d="M17.3,53.2"/>
			<path class="st6" d="M17.9,51.4c-1.3-1.6-0.6-1.9-0.1-1.4c1.2,1.3,5.7,1.4,5.1,3.6c-0.6,2.3-5.7,1.3-5.6-0.5
				C17.4,51.2,17.9,51.4,17.9,51.4"/>
			<path class="st7" d="M17.9,43.1c0,0-1,0.7-1.1,0.5c-0.5-0.7-1.8,1.7-1.9,2.3c-0.1,0.6-1.3,1.7-0.2,1.9s1.2,2.3,3.1-0.6
				S19.3,43.7,17.9,43.1z"/>
			<path class="st8" d="M9.7,49c0,0,1.4,0.5,2.2-0.3s1.1-0.6,0.4-2.4c-0.7-1.8-4.1-1.8-4.1-1.8S5.9,45.1,9.7,49z"/>
		</g>
	</g>
</g>
<g class="st1">
	<g>
		<g>
			<path class="st2" d="M29.6,63.1c1.4,2.8,3.4,1.1,3.4,0s1.9-2.8-1-3.4c-2.9-0.6-2.9-0.6-2.9-0.6s-2.4,1.1-0.5,3.4
				S29.6,63.1,29.6,63.1z"/>
			<path class="st3" d="M31.1,56.4c0,0-0.3,5.5,3.3,0.8c3.7-4.7-3-3.6-3-2.8S31.1,56.4,31.1,56.4z"/>
			<path class="st4" d="M29.2,58.7c0,0,1.2-3.1,0-4s-2.3-1.3-2.7-0.9c-0.4,0.4-1.9,0.9-1.2,2.2C26.1,57.4,29.2,58.7,29.2,58.7z"/>
			<path class="st3" d="M27.2,61.7c0,0,1-4.2-3.8-1.3s3.1,3.4,3.2,2.8S27.2,61.7,27.2,61.7z"/>
			<path class="st5" d="M34.2,60"/>
			<path class="st6" d="M34.8,61.8c-1.3,1.6-0.6,1.9-0.1,1.4c1.2-1.3,5.7-1.4,5.1-3.6c-0.6-2.3-5.7-1.3-5.6,0.5S34.8,61.8,34.8,61.8
				"/>
			<path class="st7" d="M34.8,70.1c0,0-1-0.7-1.1-0.5c-0.5,0.7-1.8-1.6-1.9-2.3c-0.1-0.7-1.3-1.7-0.2-1.9c1.1-0.2,1.2-2.3,3.1,0.6
				C36.6,68.9,36.2,69.5,34.8,70.1z"/>
			<path class="st8" d="M26.6,64.2c0,0,1.4-0.5,2.2,0.3c0.8,0.8,1.1,0.6,0.4,2.4s-4,1.8-4,1.8S22.9,68.2,26.6,64.2z"/>
		</g>
	</g>
</g>
<g class="st1">
	<g>
		<g>
			<path class="st2" d="M56.9,49.1c1.4,2.8,3.4,1.1,3.4,0s1.9-2.8-1-3.4s-2.9-0.6-2.9-0.6s-2.4,1.1-0.5,3.4
				C57.9,50.8,56.9,49.1,56.9,49.1z"/>
			<path class="st3" d="M58.5,42.4c0,0-0.3,5.5,3.3,0.8c3.6-4.7-3-3.6-3-2.8S58.5,42.4,58.5,42.4z"/>
			<path class="st4" d="M56.6,44.7c0,0,1.2-3.1,0-4s-2.3-1.3-2.7-0.9c-0.4,0.4-1.9,0.9-1.2,2.2C53.5,43.4,56.6,44.7,56.6,44.7z"/>
			<path class="st3" d="M54.6,47.7c0,0,1-4.2-3.8-1.3s3.1,3.4,3.2,2.8S54.6,47.7,54.6,47.7z"/>
			<path class="st5" d="M61.6,46"/>
			<path class="st6" d="M62.2,47.8c-1.3,1.6-0.6,1.9-0.1,1.4c1.2-1.3,5.7-1.4,5.1-3.6c-0.6-2.3-5.7-1.3-5.6,0.5
				C61.7,48,62.2,47.8,62.2,47.8"/>
			<path class="st7" d="M62.2,56.1c0,0-1-0.7-1.1-0.5c-0.5,0.7-1.8-1.6-1.9-2.3c-0.1-0.6-1.3-1.7-0.2-1.9s1.2-2.3,3.1,0.6
				S63.6,55.5,62.2,56.1z"/>
			<path class="st8" d="M54,50.2c0,0,1.4-0.5,2.2,0.3s1.1,0.6,0.4,2.4s-4,1.8-4,1.8S50.2,54.2,54,50.2z"/>
		</g>
	</g>
</g>
<g class="st1">
	<g>
		<g>
			<path class="st2" d="M-6.4,63.1c1.4,2.8,3.4,1.1,3.4,0s1.9-2.8-1-3.4s-2.9-0.6-2.9-0.6s-2.4,1.1-0.5,3.4S-6.4,63.1-6.4,63.1z"/>
			<path class="st3" d="M-4.9,56.4c0,0-0.3,5.5,3.3,0.8c3.7-4.7-3-3.6-3-2.8S-4.9,56.4-4.9,56.4z"/>
			<path class="st4" d="M-6.8,58.7c0,0,1.2-3.1,0-4s-2.3-1.3-2.7-0.9c-0.4,0.4-1.9,0.9-1.2,2.2C-9.9,57.4-6.8,58.7-6.8,58.7z"/>
			<path class="st3" d="M-8.8,61.7c0,0,1-4.2-3.8-1.3s3.1,3.4,3.2,2.8C-9.3,62.5-8.8,61.7-8.8,61.7z"/>
			<path class="st5" d="M-1.8,60"/>
			<path class="st6" d="M-1.2,61.8c-1.3,1.6-0.6,1.9-0.1,1.4c1.2-1.3,5.7-1.4,5.1-3.6c-0.6-2.3-5.7-1.3-5.6,0.5
				C-1.7,61.9-1.2,61.8-1.2,61.8"/>
			<path class="st7" d="M-1.2,70.1c0,0-1-0.7-1.1-0.5c-0.5,0.7-1.8-1.6-1.9-2.3c-0.1-0.6-1.3-1.7-0.2-1.9s1.2-2.3,3.1,0.6
				C0.6,68.9,0.2,69.5-1.2,70.1z"/>
			<path class="st8" d="M-9.4,64.2c0,0,1.4-0.5,2.2,0.3s1.1,0.6,0.4,2.4s-4,1.8-4,1.8S-13.1,68.2-9.4,64.2z"/>
		</g>
	</g>
</g>
<g class="st1">
	<g>
		<g>
			<path class="st2" d="M97.1,81.1c1.4-2.8,3.4-1.1,3.4,0s1.9,2.8-0.9,3.4s-2.9,0.6-2.9,0.6s-2.4-1.1-0.5-3.4S97.1,81.1,97.1,81.1z"
				/>
			<path class="st3" d="M98.7,87.8c0,0-0.4-5.5,3.3-0.8c3.7,4.7-3,3.6-3,2.8S98.7,87.8,98.7,87.8z"/>
			<path class="st4" d="M96.7,85.5c0,0,1.2,3.1,0,4s-2.3,1.3-2.7,0.9c-0.4-0.4-1.9-0.9-1.2-2.2S96.7,85.5,96.7,85.5z"/>
			<path class="st3" d="M94.7,82.5c0,0,1,4.2-3.8,1.4c-4.8-2.8,3.1-3.4,3.1-2.8C94.2,81.7,94.7,82.5,94.7,82.5z"/>
			<path class="st5" d="M101.8,84.2"/>
			<path class="st6" d="M102.3,82.4c-1.3-1.6-0.6-1.9-0.1-1.4c1.2,1.3,5.7,1.4,5.1,3.6c-0.6,2.3-5.7,1.3-5.6-0.5
				C101.8,82.2,102.3,82.4,102.3,82.4"/>
			<path class="st7" d="M102.3,74.1c0,0-1,0.7-1.1,0.5c-0.5-0.7-1.8,1.7-1.9,2.3c-0.1,0.6-1.3,1.7-0.2,1.9c1.1,0.1,1.2,2.3,3.1-0.6
				C104.1,75.3,103.7,74.7,102.3,74.1z"/>
			<path class="st8" d="M94.1,80c0,0,1.4,0.5,2.2-0.3c0.8-0.8,1.1-0.6,0.4-2.4s-4.1-1.8-4.1-1.8S90.3,76.1,94.1,80z"/>
		</g>
	</g>
</g>
<g class="st1">
	<g>
		<path class="st2" d="M-1.5,41.2c1.4,2.8,3.4,1.1,3.4,0s1.9-2.8-1-3.4C-2,37.2-2,37.2-2,37.2s-2.4,1.1-0.5,3.4
			C-0.5,42.9-1.5,41.2-1.5,41.2z"/>
		<path class="st9" d="M-1.5,41.2c1.4,2.8,3.4,1.1,3.4,0s1.9-2.8-1-3.4C-2,37.2-2,37.2-2,37.2s-2.4,1.1-0.5,3.4
			C-0.5,42.9-1.5,41.2-1.5,41.2z"/>
	</g>
</g>
<g class="st1">
	<g>
		<path class="st3" d="M0.1,34.5c0,0-0.3,5.5,3.3,0.8s-3-3.6-3-2.8C0.4,33.3,0.1,34.5,0.1,34.5z"/>
		<path class="st9" d="M0.1,34.5c0,0-0.3,5.5,3.3,0.8s-3-3.6-3-2.8C0.4,33.3,0.1,34.5,0.1,34.5z"/>
	</g>
</g>
<g class="st1">
	<g>
		<path class="st4" d="M-1.8,36.8c0,0,1.2-3.1,0-4C-3,32-4.1,31.6-4.5,32c-0.4,0.4-1.9,0.9-1.2,2.2C-4.9,35.5-1.8,36.8-1.8,36.8z"/>
		<path class="st9" d="M-1.8,36.8c0,0,1.2-3.1,0-4C-3,32-4.1,31.6-4.5,32c-0.4,0.4-1.9,0.9-1.2,2.2C-4.9,35.5-1.8,36.8-1.8,36.8z"/>
	</g>
</g>
<g class="st1">
	<g>
		<path class="st3" d="M-3.8,39.8c0,0,1-4.2-3.8-1.3s3.1,3.4,3.2,2.8C-4.3,40.7-3.8,39.8-3.8,39.8z"/>
		<path class="st9" d="M-3.8,39.8c0,0,1-4.2-3.8-1.3s3.1,3.4,3.2,2.8C-4.3,40.7-3.8,39.8-3.8,39.8z"/>
	</g>
</g>
<g class="st1">
	<g>
		<path class="st10" d="M12.2,47.2"/>
		<path class="st9" d="M12.2,47.2"/>
	</g>
	<g>
		<path class="st5" d="M3.2,38.2"/>
		<path class="st9" d="M3.2,38.2"/>
	</g>
</g>
<g class="st1">
	<g>
		<path class="st6" d="M3.8,40c-1.3,1.6-0.6,1.9-0.1,1.4c1.2-1.3,5.7-1.4,5.1-3.6c-0.6-2.3-5.7-1.3-5.6,0.5C3.3,40.1,3.8,40,3.8,40"
			/>
		<path class="st9" d="M3.8,40c-1.3,1.6-0.6,1.9-0.1,1.4c1.2-1.3,5.7-1.4,5.1-3.6c-0.6-2.3-5.7-1.3-5.6,0.5C3.3,40.1,3.8,40,3.8,40"
			/>
	</g>
</g>
<g class="st1">
	<g>
		<path class="st7" d="M3.8,48.2c0,0-1-0.7-1.1-0.5c-0.5,0.7-1.8-1.6-1.9-2.3c-0.1-0.6-1.3-1.7-0.2-1.9s1.2-2.3,3.1,0.6
			C5.6,47,5.2,47.6,3.8,48.2z"/>
		<path class="st9" d="M3.8,48.2c0,0-1-0.7-1.1-0.5c-0.5,0.7-1.8-1.6-1.9-2.3c-0.1-0.6-1.3-1.7-0.2-1.9s1.2-2.3,3.1,0.6
			C5.6,47,5.2,47.6,3.8,48.2z"/>
	</g>
</g>
<g class="st1">
	<g>
		<path class="st8" d="M-4.4,42.3c0,0,1.4-0.5,2.2,0.3S-1,43.2-1.7,45s-4,1.8-4,1.8S-8.2,46.3-4.4,42.3z"/>
		<path class="st9" d="M-4.4,42.3c0,0,1.4-0.5,2.2,0.3S-1,43.2-1.7,45s-4,1.8-4,1.8S-8.2,46.3-4.4,42.3z"/>
	</g>
</g>
<g class="st1">
	<g>
		<g>
			<path class="st2" d="M7.9,1.1c1.4,2.8,3.4,1.1,3.4,0s1.9-2.8-1-3.4S7.5-2.8,7.5-2.8S5.1-1.7,7,0.6S7.9,1.1,7.9,1.1z"/>
			<path class="st3" d="M9.5-5.6c0,0-0.3,5.5,3.3,0.8s-3-3.6-3-2.8S9.5-5.6,9.5-5.6z"/>
			<path class="st4" d="M7.6-3.3c0,0,1.2-3.1,0-4S5.3-8.5,4.9-8.1c-0.4,0.4-2,0.9-1.2,2.2S7.6-3.3,7.6-3.3z"/>
			<path class="st3" d="M5.6-0.3c0,0,1-4.2-3.8-1.3S4.9,1.8,5,1.2S5.6-0.3,5.6-0.3z"/>
			<path class="st5" d="M12.6-2"/>
			<path class="st6" d="M13.2-0.2c-1.3,1.6-0.6,1.9-0.1,1.4c1.2-1.3,5.7-1.4,5.1-3.6c-0.6-2.3-5.7-1.3-5.6,0.5S13.2-0.2,13.2-0.2"/>
			<path class="st7" d="M13.2,8.1c0,0-1-0.7-1.1-0.5c-0.5,0.7-1.8-1.6-1.9-2.3C10.1,4.7,8.9,3.6,10,3.5s1.2-2.3,3.1,0.6
				S14.6,7.5,13.2,8.1z"/>
			<path class="st8" d="M5,2.2c0,0,1.4-0.5,2.2,0.3s1.1,0.6,0.4,2.4s-4,1.8-4,1.8S1.2,6.2,5,2.2z"/>
		</g>
	</g>
</g>
<g class="st1">
	<g>
		<g>
			<path class="st2" d="M93.6,64.1c1.4,2.8,3.4,1.1,3.4,0s1.9-2.8-1-3.4s-2.9-0.6-2.9-0.6s-2.4,1.1-0.5,3.4S93.6,64.1,93.6,64.1z"/>
			<path class="st3" d="M95.1,57.4c0,0-0.3,5.5,3.3,0.8c3.7-4.7-3-3.6-3-2.8S95.1,57.4,95.1,57.4z"/>
			<path class="st4" d="M93.2,59.7c0,0,1.2-3.1,0-4s-2.3-1.3-2.7-0.9c-0.4,0.4-1.9,0.9-1.2,2.2C90.1,58.4,93.2,59.7,93.2,59.7z"/>
			<path class="st3" d="M91.2,62.7c0,0,1-4.2-3.8-1.3s3.1,3.4,3.2,2.8C90.7,63.5,91.2,62.7,91.2,62.7z"/>
			<path class="st5" d="M98.2,61"/>
			<path class="st6" d="M98.8,62.8c-1.3,1.6-0.6,1.9-0.1,1.4c1.2-1.3,5.7-1.4,5.1-3.6c-0.6-2.3-5.7-1.3-5.6,0.5S98.8,62.8,98.8,62.8
				"/>
			<path class="st7" d="M98.8,71.1c0,0-1-0.7-1.1-0.5c-0.5,0.7-1.8-1.6-1.9-2.3c-0.1-0.6-1.3-1.7-0.2-1.9s1.2-2.3,3.1,0.6
				C100.6,69.9,100.2,70.5,98.8,71.1z"/>
			<path class="st8" d="M90.6,65.2c0,0,1.4-0.5,2.2,0.3c0.8,0.8,1.1,0.6,0.4,2.4s-4,1.8-4,1.8S86.9,69.2,90.6,65.2z"/>
		</g>
	</g>
</g>
</svg>
